# File created by Blade
# Date/Time:  Tue Jan 27 20:07:51 2015
# Frame Rate: 120.000 fps
#------------------------------------------------------
:FULLY-SPECIFIED
:DEGREES
3973
root 4.276350 32.305373 -3.324777 -2.727082 -0.058716 1.003973
Spine 2.530615 5.852692 -0.415283
Head 22.443378 -7.675449 0.857568
LeftShoulder -14.549673 -8.487804 41.418994
LeftArm 18.100414 -23.892716 -43.205715
LeftForeArm 12.304721 -0.000000 -7.961675
LeftHand 10.713412 -0.000000 -10.734714
LeftHandThumb1 -26.253704 0.000000 33.147579
RightShoulder -20.580720 -20.207306 -42.523889
RightArm 11.083849 20.130060 38.173014
RightForeArm -14.889986 -0.000000 3.037002
RightHand 16.998733 0.000000 4.217952
RightHandThumb1 -24.326973 -0.000000 -32.862282
LeftUpLeg 9.313979 1.031684 -5.304357
LeftLeg 0.606289 -0.000000 -0.000000
LeftFoot -14.911931 8.528389 -17.672743
LeftToeBase 19.376026 -0.000000 -0.000000
RightUpLeg 7.037751 -12.660743 4.810980
RightLeg 5.387589 -0.000000 -0.000000
RightFoot -16.615273 -13.793609 13.635760
RightToeBase 11.628042 -0.000000 -0.000000
3974
root 4.277450 32.306472 -3.333321 -2.726568 -0.174456 0.991001
Spine 2.551821 5.840160 -0.378490
Head 22.323403 -7.583243 0.807988
LeftShoulder -14.602697 -8.034191 41.355622
LeftArm 18.483082 -24.493067 -43.450971
LeftForeArm 12.615867 -0.000000 -8.019844
LeftHand 10.959220 -0.000000 -10.844193
LeftHandThumb1 -26.253704 0.000000 33.147579
RightShoulder -20.557012 -20.147217 -42.502886
RightArm 11.186528 20.091881 38.084432
RightForeArm -15.252606 -0.000000 3.054480
RightHand 16.987422 -0.000000 4.473449
RightHandThumb1 -24.326973 -0.000000 -32.862282
LeftUpLeg 9.316163 1.074522 -5.298162
LeftLeg 0.577036 -0.000000 -0.000000
LeftFoot -14.924429 8.621576 -17.576739
LeftToeBase 19.501675 -0.000000 -0.000000
RightUpLeg 7.001028 -12.670439 4.813642
RightLeg 5.408907 -0.000000 -0.000000
RightFoot -16.510365 -13.717639 13.518419
RightToeBase 11.468298 -0.000000 -0.000000
3975
root 4.278320 32.307376 -3.342288 -2.716680 -0.289964 0.979439
Spine 2.568244 5.843011 -0.337872
Head 22.191302 -7.459690 0.775305
LeftShoulder -14.646514 -7.588628 41.260557
LeftArm 18.775894 -24.982019 -43.672842
LeftForeArm 12.779102 -0.000000 -7.833246
LeftHand 11.158283 -0.000000 -10.859762
LeftHandThumb1 -26.253704 0.000000 33.147579
RightShoulder -20.556255 -20.140971 -42.470498
RightArm 11.313659 19.990597 38.037156
RightForeArm -15.275917 -0.000000 3.075098
RightHand 17.017529 -0.000000 4.561353
RightHandThumb1 -24.326973 -0.000000 -32.862282
LeftUpLeg 9.303704 1.050311 -5.307142
LeftLeg 0.584086 -0.000000 -0.000000
LeftFoot -14.965278 8.686745 -17.696407
LeftToeBase 19.539717 -0.000000 -0.000000
RightUpLeg 6.960323 -12.647648 4.817944
RightLeg 5.428567 -0.000000 -0.000000
RightFoot -16.501375 -13.621299 13.543142
RightToeBase 11.491574 -0.000000 -0.000000
3976
root 4.278548 32.308025 -3.350007 -2.710238 -0.423490 0.972978
Spine 2.591037 5.858581 -0.301732
Head 22.031142 -7.336371 0.742474
LeftShoulder -14.745515 -7.496440 41.239943
LeftArm 18.794250 -25.093368 -43.759210
LeftForeArm 12.807323 -0.000000 -7.557732
LeftHand 11.360863 -0.000000 -10.685631
LeftHandThumb1 -26.253704 0.000000 33.147579
RightShoulder -20.504615 -19.953572 -42.510738
RightArm 11.267476 19.636207 37.924473
RightForeArm -15.100477 0.000000 3.092247
RightHand 17.118402 -0.000000 4.715447
RightHandThumb1 -24.326973 -0.000000 -32.862282
LeftUpLeg 9.309769 1.052771 -5.315960
LeftLeg 0.551851 -0.000000 -0.000000
LeftFoot -14.971806 8.807218 -17.554814
LeftToeBase 19.588305 -0.000000 -0.000000
RightUpLeg 6.921865 -12.647749 4.812635
RightLeg 5.450992 -0.000000 -0.000000
RightFoot -16.466326 -13.502105 13.499104
RightToeBase 11.569831 -0.000000 -0.000000
3977
root 4.278576 32.307618 -3.355931 -2.704652 -0.574984 0.978596
Spine 2.607767 5.904416 -0.288806
Head 21.860128 -7.231834 0.728860
LeftShoulder -14.898800 -7.677157 41.257138
LeftArm 18.693102 -24.804769 -43.677790
LeftForeArm 12.708411 0.000000 -7.349057
LeftHand 11.635181 -0.000000 -10.769835
LeftHandThumb1 -26.253704 0.000000 33.147579
RightShoulder -20.495219 -20.000703 -42.459851
RightArm 11.423057 19.682091 37.965938
RightForeArm -15.081154 -0.000000 3.058164
RightHand 17.212607 0.000000 4.768061
RightHandThumb1 -24.326973 -0.000000 -32.862282
LeftUpLeg 9.319942 1.133086 -5.321940
LeftLeg 0.506729 -0.000000 -0.000000
LeftFoot -14.995188 8.884207 -17.640269
LeftToeBase 19.630736 -0.000000 -0.000000
RightUpLeg 6.903565 -12.634734 4.800616
RightLeg 5.429312 -0.000000 -0.000000
RightFoot -16.362631 -13.442888 13.275008
RightToeBase 11.423355 -0.000000 -0.000000
3978
root 4.277996 32.307728 -3.363607 -2.677460 -0.728081 0.975382
Spine 2.607744 5.976048 -0.277792
Head 21.657645 -7.113645 0.758134
LeftShoulder -15.021101 -7.821158 41.282589
LeftArm 18.620830 -24.587142 -43.618312
LeftForeArm 12.582727 -0.000000 -7.192872
LeftHand 11.866626 -0.000000 -10.803799
LeftHandThumb1 -26.253704 0.000000 33.147579
RightShoulder -20.518138 -20.006071 -42.398592
RightArm 11.557441 19.614748 37.994819
RightForeArm -14.975927 0.000000 3.013491
RightHand 17.262655 -0.000000 4.578689
RightHandThumb1 -24.326973 -0.000000 -32.862282
LeftUpLeg 9.305497 1.171257 -5.329310
LeftLeg 0.470009 -0.000000 -0.000000
LeftFoot -14.987015 8.966768 -17.758059
LeftToeBase 19.357924 -0.000000 -0.000000
RightUpLeg 6.858856 -12.607014 4.809315
RightLeg 5.415658 -0.000000 -0.000000
RightFoot -16.363942 -13.367441 13.295823
RightToeBase 11.582840 -0.000000 -0.000000
3979
root 4.277021 32.306204 -3.367318 -2.667343 -0.859894 0.974694
Spine 2.604034 6.018208 -0.251489
Head 21.446025 -7.095116 0.748879
LeftShoulder -15.119412 -7.903084 41.286154
LeftArm 18.586609 -24.212982 -43.557218
LeftForeArm 12.590481 -0.000000 -7.012389
LeftHand 11.721187 -0.000000 -10.389600
LeftHandThumb1 -26.253704 0.000000 33.147579
RightShoulder -20.445124 -19.898080 -42.474943
RightArm 11.558291 19.761016 38.129107
RightForeArm -15.221205 0.000000 3.011995
RightHand 17.209185 0.000000 4.601633
RightHandThumb1 -24.326973 -0.000000 -32.862282
LeftUpLeg 9.320483 1.230423 -5.329625
LeftLeg 0.415731 -0.000000 -0.000000
LeftFoot -15.004674 9.048062 -17.678424
LeftToeBase 19.510798 -0.000000 -0.000000
RightUpLeg 6.851733 -12.609330 4.798656
RightLeg 5.390219 -0.000000 -0.000000
RightFoot -16.270957 -13.251801 13.138217
RightToeBase 11.394751 -0.000000 -0.000000
3980
root 4.275659 32.304813 -3.370837 -2.644410 -0.976476 0.972479
Spine 2.572306 6.083057 -0.225248
Head 21.235322 -7.173395 0.761229
LeftShoulder -15.156333 -7.860728 41.203273
LeftArm 18.704874 -23.880138 -43.442224
LeftForeArm 12.335602 -0.000000 -7.051133
LeftHand 11.936461 -0.000000 -10.214486
LeftHandThumb1 -26.253704 0.000000 33.147579
RightShoulder -20.413075 -19.862859 -42.494775
RightArm 11.590175 19.775084 38.200754
RightForeArm -15.204615 -0.000000 3.003739
RightHand 17.132109 0.000000 4.909012
RightHandThumb1 -24.326973 -0.000000 -32.862282
LeftUpLeg 9.321778 1.230030 -5.337476
LeftLeg 0.365704 -0.000000 -0.000000
LeftFoot -15.041128 9.146385 -17.732099
LeftToeBase 19.547339 -0.000000 -0.000000
RightUpLeg 6.845877 -12.675074 4.787494
RightLeg 5.335920 -0.000000 -0.000000
RightFoot -16.208973 -13.107434 13.043377
RightToeBase 11.410209 -0.000000 -0.000000
3981
root 4.272303 32.302770 -3.374708 -2.623760 -1.082499 0.970938
Spine 2.547531 6.152538 -0.227261
Head 20.997450 -7.217021 0.800774
LeftShoulder -15.179966 -7.826341 41.209534
LeftArm 18.790018 -23.423290 -43.375811
LeftForeArm 12.041467 0.000000 -7.085501
LeftHand 11.873779 -0.000000 -9.905387
LeftHandThumb1 -26.253704 0.000000 33.147579
RightShoulder -20.449416 -19.957693 -42.415069
RightArm 11.800948 19.810572 38.309061
RightForeArm -15.122068 -0.000000 2.888468
RightHand 17.141070 0.000000 4.972838
RightHandThumb1 -24.326973 -0.000000 -32.862282
LeftUpLeg 9.326304 1.192058 -5.353958
LeftLeg 0.321275 -0.000000 -0.000000
LeftFoot -15.054737 9.276314 -17.797809
LeftToeBase 19.249341 -0.000000 -0.000000
RightUpLeg 6.826090 -12.654446 4.795501
RightLeg 5.313768 -0.000000 -0.000000
RightFoot -16.215924 -13.025004 13.060485
RightToeBase 11.441756 -0.000000 -0.000000
3982
root 4.270274 32.301428 -3.378892 -2.591327 -1.173772 0.970431
Spine 2.513656 6.201519 -0.228588
Head 20.754396 -7.214515 0.833935
LeftShoulder -15.195468 -7.685842 41.177779
LeftArm 18.974096 -23.271368 -43.386974
LeftForeArm 11.820456 -0.000000 -7.199865
LeftHand 12.031597 0.000000 -9.702070
LeftHandThumb1 -26.253704 0.000000 33.147579
RightShoulder -20.430337 -19.871849 -42.414202
RightArm 11.828673 19.807657 38.392393
RightForeArm -15.213455 -0.000000 2.840895
RightHand 17.158125 0.000000 5.042196
RightHandThumb1 -24.326973 -0.000000 -32.862282
LeftUpLeg 9.312125 1.168380 -5.364956
LeftLeg 0.289628 -0.000000 -0.000000
LeftFoot -15.119950 9.336840 -17.881312
LeftToeBase 19.583016 -0.000000 -0.000000
RightUpLeg 6.810590 -12.685651 4.796576
RightLeg 5.256468 -0.000000 -0.000000
RightFoot -16.166933 -12.948832 12.985980
RightToeBase 11.422928 -0.000000 -0.000000
